<svg xmlns="http://www.w3.org/2000/svg" viewBox="0 0 1429 825" preserveAspectRatio="xMidYMid" width="1429" height="825" xmlns:xlink="http://www.w3.org/1999/xlink" style="shape-rendering:auto;display:block;background-position-x:0%;background-position-y:0%;background-size:auto;background-origin:padding-box;background-clip:border-box;background:scroll rgb(0, 0, 0) none  repeat;width:1429px;height:825px;;animation:none"><g><path d="M 0 535.5 C 238 535.5 477 686.5 715 686.5 C 953 686.5 1192 535.5 1430 535.5 C 1668 535.5 1907 686.5 2145 686.5 C 2383 686.5 2622 535.5 2860 535.5" fill="none" stroke="rgb(62, 38, 211)" stroke-opacity="0" stroke-width="3.5" transform="matrix(1,0,0,1,0,0)" style="fill:none;stroke:rgb(62, 38, 211);transform:matrix(1, 0, 0, 1, 0, 0);;animation:none"></path>
<path d="M 0 536.027 C 238 536.027 477 685.973 715 685.973 C 953 685.973 1192 536.027 1430 536.027 C 1668 536.027 1907 685.973 2145 685.973 C 2383 685.973 2622 536.027 2860 536.027" fill="none" stroke="rgb(61, 39, 208)" stroke-opacity="0" stroke-width="3.5" transform="matrix(1,0,0,1,-35.724945068359375,0)" style="fill:none;stroke:rgb(61, 39, 208);transform:matrix(1, 0, 0, 1, -35.7249, 0);;animation:none"></path>
<path d="M 0 537.708 C 238 537.708 477 684.292 715 684.292 C 953 684.292 1192 537.708 1430 537.708 C 1668 537.708 1907 684.292 2145 684.292 C 2383 684.292 2622 537.708 2860 537.708" fill="none" stroke="rgb(59, 42, 199)" stroke-opacity="0" stroke-width="3.5" transform="matrix(1,0,0,1,-71.44989013671875,0)" style="fill:none;stroke:rgb(59, 42, 199);transform:matrix(1, 0, 0, 1, -71.4499, 0);;animation:none"></path>
<path d="M 0 540.714 C 238 540.714 477 681.286 715 681.286 C 953 681.286 1192 540.714 1430 540.714 C 1668 540.714 1907 681.286 2145 681.286 C 2383 681.286 2622 540.714 2860 540.714" fill="none" stroke="rgb(54, 48, 180)" stroke-opacity="0" stroke-width="3.5" transform="matrix(1,0,0,1,-107.17500305175781,0)" style="fill:none;stroke:rgb(54, 48, 180);transform:matrix(1, 0, 0, 1, -107.175, 0);;animation:none"></path>
<path d="M 0 545.239 C 238 545.239 477 676.761 715 676.761 C 953 676.761 1192 545.239 1430 545.239 C 1668 545.239 1907 676.761 2145 676.761 C 2383 676.761 2622 545.239 2860 545.239" fill="none" stroke="rgb(46, 57, 152)" stroke-opacity="0" stroke-width="3.5" transform="matrix(1,0,0,1,-142.8999481201172,0)" style="fill:none;stroke:rgb(46, 57, 152);transform:matrix(1, 0, 0, 1, -142.9, 0);;animation:none"></path>
<path d="M 0 551.49 C 238 551.49 477 670.51 715 670.51 C 953 670.51 1192 551.49 1430 551.49 C 1668 551.49 1907 670.51 2145 670.51 C 2383 670.51 2622 551.49 2860 551.49" fill="none" stroke="rgb(37, 69, 116)" stroke-opacity="0" stroke-width="3.5" transform="matrix(1,0,0,1,-178.62489318847656,0)" style="fill:none;stroke:rgb(37, 69, 116);transform:matrix(1, 0, 0, 1, -178.625, 0);;animation:none"></path>
<path d="M 0 559.664 C 238 559.664 477 662.336 715 662.336 C 953 662.336 1192 559.664 1430 559.664 C 1668 559.664 1907 662.336 2145 662.336 C 2383 662.336 2622 559.664 2860 559.664" fill="none" stroke="rgb(27, 82, 79)" stroke-opacity="0" stroke-width="3.5" transform="matrix(1,0,0,1,-214.35000610351562,0)" style="fill:none;stroke:rgb(27, 82, 79);transform:matrix(1, 0, 0, 1, -214.35, 0);;animation:none"></path>
<path d="M 0 569.892 C 238 569.892 477 652.108 715 652.108 C 953 652.108 1192 569.892 1430 569.892 C 1668 569.892 1907 652.108 2145 652.108 C 2383 652.108 2622 569.892 2860 569.892" fill="none" stroke="rgb(19, 91, 51)" stroke-opacity="0" stroke-width="3.5" transform="matrix(1,0,0,1,-250.074951171875,0)" style="fill:none;stroke:rgb(19, 91, 51);transform:matrix(1, 0, 0, 1, -250.075, 0);;animation:none"></path>
<path d="M 0 582.139 C 238 582.139 477 639.861 715 639.861 C 953 639.861 1192 582.139 1430 582.139 C 1668 582.139 1907 639.861 2145 639.861 C 2383 639.861 2622 582.139 2860 582.139" fill="none" stroke="rgb(14, 97, 32)" stroke-opacity="0" stroke-width="3.5" transform="matrix(1,0,0,1,-285.7998962402344,0)" style="fill:none;stroke:rgb(14, 97, 32);transform:matrix(1, 0, 0, 1, -285.8, 0);;animation:none"></path>
<path d="M 0 596.076 C 238 596.076 477 625.924 715 625.924 C 953 625.924 1192 596.076 1430 596.076 C 1668 596.076 1907 625.924 2145 625.924 C 2383 625.924 2622 596.076 2860 596.076" fill="none" stroke="rgb(12, 100, 23)" stroke-opacity="0" stroke-width="3.5" transform="matrix(1,0,0,1,-321.5250244140625,0)" style="fill:none;stroke:rgb(12, 100, 23);transform:matrix(1, 0, 0, 1, -321.525, 0);;animation:none"></path>
<path d="M 0 611 C 238 611 477 611 715 611 C 953 611 1192 611 1430 611 C 1668 611 1907 611 2145 611 C 2383 611 2622 611 2860 611" fill="none" stroke="rgb(11, 101, 20)" stroke-opacity="0.125" stroke-width="3.5" transform="matrix(1,0,0,1,-357.2499694824219,0)" style="fill:none;stroke:rgb(11, 101, 20);transform:matrix(1, 0, 0, 1, -357.25, 0);;animation:none"></path>
<path d="M 0 625.924 C 238 625.924 477 596.076 715 596.076 C 953 596.076 1192 625.924 1430 625.924 C 1668 625.924 1907 596.076 2145 596.076 C 2383 596.076 2622 625.924 2860 625.924" fill="none" stroke="rgb(13, 100, 22)" stroke-opacity="0.25" stroke-width="3.5" transform="matrix(1,0,0,1,-392.9748840332031,0)" style="fill:none;stroke:rgb(13, 100, 22);transform:matrix(1, 0, 0, 1, -392.975, 0);;animation:none"></path>
<path d="M 0 639.861 C 238 639.861 477 582.139 715 582.139 C 953 582.139 1192 639.861 1430 639.861 C 1668 639.861 1907 582.139 2145 582.139 C 2383 582.139 2622 639.861 2860 639.861" fill="none" stroke="rgb(22, 97, 30)" stroke-opacity="0.375" stroke-width="3.5" transform="matrix(1,0,0,1,-428.70001220703125,0)" style="fill:none;stroke:rgb(22, 97, 30);transform:matrix(1, 0, 0, 1, -428.7, 0);;animation:none"></path>
<path d="M 0 652.108 C 238 652.108 477 569.892 715 569.892 C 953 569.892 1192 652.108 1430 652.108 C 1668 652.108 1907 569.892 2145 569.892 C 2383 569.892 2622 652.108 2860 652.108" fill="none" stroke="rgb(38, 91, 45)" stroke-opacity="0.5" stroke-width="3.5" transform="matrix(1,0,0,1,-464.4249267578125,0)" style="fill:none;stroke:rgb(38, 91, 45);transform:matrix(1, 0, 0, 1, -464.425, 0);;animation:none"></path>
<path d="M 0 662.336 C 238 662.336 477 559.664 715 559.664 C 953 559.664 1192 662.336 1430 662.336 C 1668 662.336 1907 559.664 2145 559.664 C 2383 559.664 2622 662.336 2860 662.336" fill="none" stroke="rgb(62, 82, 68)" stroke-opacity="0.625" stroke-width="3.5" transform="matrix(1,0,0,1,-500.14990234375,0)" style="fill:none;stroke:rgb(62, 82, 68);transform:matrix(1, 0, 0, 1, -500.15, 0);;animation:none"></path>
<path d="M 0 670.51 C 238 670.51 477 551.49 715 551.49 C 953 551.49 1192 670.51 1430 670.51 C 1668 670.51 1907 551.49 2145 551.49 C 2383 551.49 2622 670.51 2860 670.51" fill="none" stroke="rgb(94, 71, 99)" stroke-opacity="0.75" stroke-width="3.5" transform="matrix(1,0,0,1,-535.8750610351562,0)" style="fill:none;stroke:rgb(94, 71, 99);transform:matrix(1, 0, 0, 1, -535.875, 0);;animation:none"></path>
<g></g></g><!-- [ldio] generated by https://loading.io --></svg>