<svg width="401" height="860" viewBox="0 0 401 860" fill="none" xmlns="http://www.w3.org/2000/svg">
<rect x="2" y="2" width="397" height="856" rx="32" stroke="#595858" stroke-width="4"/>
<path d="M50.1957 45.5909C51.061 50.4859 47.5633 55.1927 42.3833 56.1038C37.2033 57.0149 32.3027 53.7852 31.4374 48.8902C30.5721 43.9951 34.0698 39.2883 39.2498 38.3773C44.4298 37.4662 49.3304 40.6958 50.1957 45.5909Z" fill="#060000"/>
<path d="M4 29.7183C4 18.8282 12.9543 10 24 10L377 10C388.046 10 397 18.8282 397 29.7183V830.282C397 841.172 388.046 850 377 850H24C12.9543 850 4 841.172 4 830.282L4 29.7183Z" fill="black"/>
<path d="M16 56.9785C16 45.9447 24.9754 37 36.0471 37L363.953 37C375.025 37 384 45.9447 384 56.9785V803.021C384 814.055 375.025 823 363.953 823H36.0471C24.9754 823 16 814.055 16 803.021L16 56.9785Z" fill="#004B23"/>
<g filter="url(#filter0_d_9_2)">
<path d="M262.058 444C265.132 444 267.689 444.983 269.727 446.95C271.799 448.917 272.835 451.317 272.835 454.15C272.835 458.45 271.565 461.9 269.025 464.5C266.519 467.067 263.478 468.35 259.902 468.35C256.327 468.35 253.486 467.333 251.381 465.3C249.309 463.267 248.273 460.75 248.273 457.75C248.273 453.55 249.56 450.217 252.133 447.75C254.74 445.25 258.048 444 262.058 444ZM261.055 448.05C259.485 448.05 258.165 448.95 257.095 450.75C256.026 452.55 255.441 454.817 255.341 457.55C255.341 459.483 255.725 461.083 256.494 462.35C257.296 463.617 258.499 464.25 260.103 464.25C261.707 464.25 263.044 463.367 264.113 461.6C265.216 459.833 265.767 457.817 265.767 455.55C265.767 453.283 265.383 451.483 264.614 450.15C263.846 448.75 262.659 448.05 261.055 448.05Z" fill="white"/>
</g>
<g filter="url(#filter1_d_9_2)">
<path d="M237.218 462.45L238.421 451.3C238.421 450.4 238.187 449.65 237.719 449.05C237.251 448.45 236.466 448.15 235.363 448.15C234.294 448.15 233.375 448.633 232.606 449.6C231.871 450.533 231.403 451.717 231.203 453.15C230 462.283 229.365 467.25 229.298 468.05H222.531L225.288 444.5C226.691 444.133 227.761 443.95 228.496 443.95C230.735 443.95 231.905 444.767 232.005 446.4C233.642 444.8 235.597 444 237.869 444C240.175 444 241.98 444.567 243.283 445.7C244.586 446.833 245.238 448.267 245.238 450C245.238 450.467 245.138 451.35 244.937 452.65C244.169 457.717 243.784 460.667 243.784 461.5C243.784 463.033 244.302 463.8 245.338 463.8C247.611 463.8 249.332 461.433 250.501 456.7C251.637 457.9 252.322 458.85 252.556 459.55C250.785 465.417 247.711 468.35 243.333 468.35C241.261 468.35 239.724 467.717 238.722 466.45C237.719 465.183 237.218 463.85 237.218 462.45Z" fill="white"/>
</g>
<g filter="url(#filter2_d_9_2)">
<path d="M222.192 461.9C221.657 463.967 220.805 465.567 219.635 466.7C218.466 467.8 217.079 468.35 215.475 468.35C213.904 468.35 212.685 468.033 211.816 467.4C210.98 466.767 210.195 465.7 209.46 464.2L207.856 461.1L205.4 464.65C203.796 466.95 202.125 468.1 200.387 468.1C199.051 468.1 198.015 467.733 197.279 467C196.578 466.233 196.227 465.317 196.227 464.25C196.227 462.45 196.929 461.05 198.332 460.05C199.769 459.017 201.289 458.5 202.894 458.5C203.361 458.5 203.846 458.55 204.347 458.65L205.55 456.85C203.144 452.517 201.824 450.167 201.59 449.8C201.189 449.233 200.805 448.95 200.437 448.95C200.103 448.95 199.819 449.083 199.585 449.35C199.351 449.583 199.234 449.917 199.234 450.35C199.234 450.783 199.301 451.267 199.435 451.8L198.182 452.15C197.881 451.75 197.63 451.183 197.43 450.45C197.229 449.683 197.129 449.083 197.129 448.65C197.129 447.017 197.647 445.75 198.683 444.85C199.719 443.917 201.072 443.45 202.743 443.45C204.782 443.45 206.369 444.55 207.505 446.75L209.56 450.7L212.317 446.4C213.119 445.167 213.854 444.35 214.523 443.95C215.191 443.517 216.043 443.3 217.079 443.3C218.148 443.3 219.067 443.683 219.836 444.45C220.605 445.183 220.989 446.067 220.989 447.1C220.989 448.867 220.354 450.233 219.084 451.2C217.814 452.167 216.411 452.65 214.874 452.65C214.573 452.65 214.188 452.617 213.721 452.55L211.916 455.2C214.188 459.6 215.442 462.017 215.676 462.45C216.177 463.35 216.812 463.8 217.58 463.8C218.616 463.8 219.435 462.883 220.036 461.05L220.237 460.45C220.27 460.35 220.354 460.017 220.488 459.45L222.192 461.9ZM217.881 447.15C217.547 447.15 217.229 447.333 216.929 447.7C216.661 448.033 216.01 449.017 214.974 450.65C215.876 450.65 216.728 450.433 217.53 450C218.332 449.533 218.75 448.95 218.783 448.25C218.817 447.517 218.516 447.15 217.881 447.15ZM202.693 460.5C201.757 460.5 200.855 460.733 199.986 461.2C199.117 461.667 198.683 462.25 198.683 462.95C198.683 463.65 198.984 464 199.585 464C200.287 464 201.457 462.833 203.094 460.5H202.693Z" fill="white"/>
</g>
<g filter="url(#filter3_d_9_2)">
<path d="M184.471 444C187.545 444 190.102 444.983 192.14 446.95C194.212 448.917 195.248 451.317 195.248 454.15C195.248 458.45 193.978 461.9 191.438 464.5C188.932 467.067 185.891 468.35 182.315 468.35C178.74 468.35 175.899 467.333 173.794 465.3C171.722 463.267 170.686 460.75 170.686 457.75C170.686 453.55 171.973 450.217 174.546 447.75C177.152 445.25 180.461 444 184.471 444ZM183.468 448.05C181.898 448.05 180.578 448.95 179.508 450.75C178.439 452.55 177.854 454.817 177.754 457.55C177.754 459.483 178.138 461.083 178.907 462.35C179.709 463.617 180.912 464.25 182.516 464.25C184.12 464.25 185.457 463.367 186.526 461.6C187.629 459.833 188.18 457.817 188.18 455.55C188.18 453.283 187.796 451.483 187.027 450.15C186.259 448.75 185.072 448.05 183.468 448.05Z" fill="white"/>
</g>
<g filter="url(#filter4_d_9_2)">
<path d="M163.546 431.25C164.315 430.45 165.25 430.05 166.353 430.05C167.456 430.05 168.392 430.45 169.16 431.25C169.962 432.017 170.363 432.95 170.363 434.05C170.363 435.15 169.962 436.083 169.16 436.85C168.392 437.617 167.456 438 166.353 438C165.25 438 164.315 437.617 163.546 436.85C162.777 436.083 162.393 435.15 162.393 434.05C162.393 432.95 162.777 432.017 163.546 431.25ZM161.491 445.9C161.825 445.3 162.46 444.85 163.396 444.55C164.331 444.217 165.25 444.05 166.153 444.05C167.088 444.05 167.907 444.167 168.609 444.4C167.305 454.433 166.654 459.5 166.654 459.6C166.487 460.267 166.403 460.833 166.403 461.3C166.403 461.733 166.437 462.117 166.503 462.45C166.637 463.317 167.239 463.75 168.308 463.75C169.411 463.75 170.413 463.05 171.316 461.65C172.251 460.217 172.953 458.6 173.421 456.8C173.655 456.933 174.022 457.333 174.524 458C175.025 458.667 175.326 459.167 175.426 459.5C174.757 462.167 173.621 464.317 172.017 465.95C170.413 467.583 168.492 468.4 166.253 468.4C164.014 468.4 162.343 467.85 161.24 466.75C160.171 465.65 159.636 464.233 159.636 462.5C159.636 462.133 159.653 461.75 159.686 461.35L161.491 445.9Z" fill="white"/>
</g>
<g filter="url(#filter5_d_9_2)">
<path d="M128 440.8C128 437.6 129.42 435 132.261 433C135.101 431 138.894 430 143.639 430C146.48 430 148.969 430.333 151.108 431C153.247 431.633 154.884 432.517 156.02 433.65C158.293 435.883 159.429 438.45 159.429 441.35C159.429 444.25 158.259 446.683 155.92 448.65C153.614 450.583 150.657 451.55 147.048 451.55C146.647 451.55 146.045 451.517 145.243 451.45L145.694 447.8C150.139 447.8 152.361 445.717 152.361 441.55C152.361 439.617 151.542 437.983 149.905 436.65C148.201 435.25 145.661 434.55 142.286 434.55C138.911 434.55 136.237 435.417 134.266 437.15C133.096 438.15 132.511 439.233 132.511 440.4C132.511 442.6 133.831 443.85 136.471 444.15L135.87 447.85C133.564 447.75 131.676 447.017 130.206 445.65C128.735 444.283 128 442.667 128 440.8ZM145.644 437.15L143.439 451.45C147.683 453.483 149.805 456.483 149.805 460.45C149.805 463.35 149.036 465.4 147.499 466.6C145.995 467.767 144.174 468.35 142.035 468.35C139.896 468.35 138.226 467.8 137.023 466.7C135.82 465.6 135.218 464.117 135.218 462.25C135.218 461.817 135.235 461.483 135.268 461.25L138.276 438.1C140.013 437.267 141.484 436.85 142.687 436.85C143.89 436.85 144.876 436.95 145.644 437.15ZM143.489 463.8C144.291 463.8 144.976 463.517 145.544 462.95C146.145 462.383 146.446 461.433 146.446 460.1C146.446 457.733 145.31 455.867 143.038 454.5C142.503 458.4 142.236 460.75 142.236 461.55C142.236 462.317 142.353 462.883 142.587 463.25C142.854 463.617 143.155 463.8 143.489 463.8Z" fill="white"/>
</g>
<circle cx="55.5" cy="72.5" r="14.5" fill="black"/>
<defs>
<filter id="filter0_d_9_2" x="244.273" y="444" width="32.5615" height="32.35" filterUnits="userSpaceOnUse" color-interpolation-filters="sRGB">
<feFlood flood-opacity="0" result="BackgroundImageFix"/>
<feColorMatrix in="SourceAlpha" type="matrix" values="0 0 0 0 0 0 0 0 0 0 0 0 0 0 0 0 0 0 127 0" result="hardAlpha"/>
<feOffset dy="4"/>
<feGaussianBlur stdDeviation="2"/>
<feComposite in2="hardAlpha" operator="out"/>
<feColorMatrix type="matrix" values="0 0 0 0 0 0 0 0 0 0 0 0 0 0 0 0 0 0 0.25 0"/>
<feBlend mode="normal" in2="BackgroundImageFix" result="effect1_dropShadow_9_2"/>
<feBlend mode="normal" in="SourceGraphic" in2="effect1_dropShadow_9_2" result="shape"/>
</filter>
<filter id="filter1_d_9_2" x="218.531" y="443.95" width="38.0253" height="32.4" filterUnits="userSpaceOnUse" color-interpolation-filters="sRGB">
<feFlood flood-opacity="0" result="BackgroundImageFix"/>
<feColorMatrix in="SourceAlpha" type="matrix" values="0 0 0 0 0 0 0 0 0 0 0 0 0 0 0 0 0 0 127 0" result="hardAlpha"/>
<feOffset dy="4"/>
<feGaussianBlur stdDeviation="2"/>
<feComposite in2="hardAlpha" operator="out"/>
<feColorMatrix type="matrix" values="0 0 0 0 0 0 0 0 0 0 0 0 0 0 0 0 0 0 0.25 0"/>
<feBlend mode="normal" in2="BackgroundImageFix" result="effect1_dropShadow_9_2"/>
<feBlend mode="normal" in="SourceGraphic" in2="effect1_dropShadow_9_2" result="shape"/>
</filter>
<filter id="filter2_d_9_2" x="192.227" y="443.3" width="33.9651" height="33.05" filterUnits="userSpaceOnUse" color-interpolation-filters="sRGB">
<feFlood flood-opacity="0" result="BackgroundImageFix"/>
<feColorMatrix in="SourceAlpha" type="matrix" values="0 0 0 0 0 0 0 0 0 0 0 0 0 0 0 0 0 0 127 0" result="hardAlpha"/>
<feOffset dy="4"/>
<feGaussianBlur stdDeviation="2"/>
<feComposite in2="hardAlpha" operator="out"/>
<feColorMatrix type="matrix" values="0 0 0 0 0 0 0 0 0 0 0 0 0 0 0 0 0 0 0.25 0"/>
<feBlend mode="normal" in2="BackgroundImageFix" result="effect1_dropShadow_9_2"/>
<feBlend mode="normal" in="SourceGraphic" in2="effect1_dropShadow_9_2" result="shape"/>
</filter>
<filter id="filter3_d_9_2" x="166.686" y="444" width="32.5615" height="32.35" filterUnits="userSpaceOnUse" color-interpolation-filters="sRGB">
<feFlood flood-opacity="0" result="BackgroundImageFix"/>
<feColorMatrix in="SourceAlpha" type="matrix" values="0 0 0 0 0 0 0 0 0 0 0 0 0 0 0 0 0 0 127 0" result="hardAlpha"/>
<feOffset dy="4"/>
<feGaussianBlur stdDeviation="2"/>
<feComposite in2="hardAlpha" operator="out"/>
<feColorMatrix type="matrix" values="0 0 0 0 0 0 0 0 0 0 0 0 0 0 0 0 0 0 0.25 0"/>
<feBlend mode="normal" in2="BackgroundImageFix" result="effect1_dropShadow_9_2"/>
<feBlend mode="normal" in="SourceGraphic" in2="effect1_dropShadow_9_2" result="shape"/>
</filter>
<filter id="filter4_d_9_2" x="155.636" y="430.05" width="23.7896" height="46.35" filterUnits="userSpaceOnUse" color-interpolation-filters="sRGB">
<feFlood flood-opacity="0" result="BackgroundImageFix"/>
<feColorMatrix in="SourceAlpha" type="matrix" values="0 0 0 0 0 0 0 0 0 0 0 0 0 0 0 0 0 0 127 0" result="hardAlpha"/>
<feOffset dy="4"/>
<feGaussianBlur stdDeviation="2"/>
<feComposite in2="hardAlpha" operator="out"/>
<feColorMatrix type="matrix" values="0 0 0 0 0 0 0 0 0 0 0 0 0 0 0 0 0 0 0.25 0"/>
<feBlend mode="normal" in2="BackgroundImageFix" result="effect1_dropShadow_9_2"/>
<feBlend mode="normal" in="SourceGraphic" in2="effect1_dropShadow_9_2" result="shape"/>
</filter>
<filter id="filter5_d_9_2" x="124" y="430" width="39.4287" height="46.35" filterUnits="userSpaceOnUse" color-interpolation-filters="sRGB">
<feFlood flood-opacity="0" result="BackgroundImageFix"/>
<feColorMatrix in="SourceAlpha" type="matrix" values="0 0 0 0 0 0 0 0 0 0 0 0 0 0 0 0 0 0 127 0" result="hardAlpha"/>
<feOffset dy="4"/>
<feGaussianBlur stdDeviation="2"/>
<feComposite in2="hardAlpha" operator="out"/>
<feColorMatrix type="matrix" values="0 0 0 0 0 0 0 0 0 0 0 0 0 0 0 0 0 0 0.25 0"/>
<feBlend mode="normal" in2="BackgroundImageFix" result="effect1_dropShadow_9_2"/>
<feBlend mode="normal" in="SourceGraphic" in2="effect1_dropShadow_9_2" result="shape"/>
</filter>
</defs>
</svg>
